<svg xmlns="http://www.w3.org/2000/svg" width="86" height="86" viewBox="0 0 86 86">
<defs>
<clipPath id="id5a0d00426c"><path d="M 0 0 L 86.0 0 L 86.0 86.0 L 0 86.0 Z M 43 0 A 43.0 43.0 0 0 1 86.0 43.0 L 86 0 Z M 86 43 A 43.0 43.0 0 0 1 43.0 86.0 L 86 86 Z" fill-rule="evenodd"/></clipPath>
<linearGradient id="id5a0d00426g" x1="0" y1="0" x2="1" y2="1"><stop offset="0" stop-color="#0c7c4a"/><stop offset="1" stop-color="#2fd48e"/></linearGradient>
<radialGradient id="id5a0d00426r" cx="0.42" cy="0.36" r="0.75"><stop offset="0" stop-color="#ffffff" stop-opacity="0.32"/><stop offset="1" stop-color="#ffffff" stop-opacity="0"/></radialGradient>
</defs>
<path d="M 0 0 L 86.0 0 L 86.0 86.0 L 0 86.0 Z M 43 0 A 43.0 43.0 0 0 1 86.0 43.0 L 86 0 Z M 86 43 A 43.0 43.0 0 0 1 43.0 86.0 L 86 86 Z" fill="url(#id5a0d00426g)" fill-rule="evenodd"/>
<g clip-path="url(#id5a0d00426c)">
<circle cx="36" cy="31" r="40" fill="url(#id5a0d00426r)"/>
<circle cx="39.9" cy="47.0" r="12.7" fill="#d9fff0" opacity="0.95"/>
<circle cx="39.9" cy="47.0" r="12.7" fill="none" opacity="1.00" stroke="#ffffff" stroke-width="1.5"/>
<polygon points="46.4,49.6 43.3,52.1 45.8,45.6" fill="#ffffff" opacity="0.90"/>
<polygon points="41.5,53.8 37.7,52.7 44.4,51.1" fill="#ffffff" opacity="0.90"/>
<polygon points="33.1,48.4 34.4,44.6 35.7,51.4" fill="#ffffff" opacity="0.90"/>
<polygon points="35.2,41.9 39.1,41.0 34.0,45.7" fill="#ffffff" opacity="0.90"/>
<polygon points="44.9,42.1 45.9,46.0 41.1,41.1" fill="#ffffff" opacity="0.90"/>
<path d="M 8 68 Q 24 78 43 74 T 78 68" opacity="0.85" fill="none" stroke="#ffffff" stroke-width="2.6" stroke-linecap="round" stroke-linejoin="round"/>
<line x1="8.0" y1="66.0" x2="8.0" y2="78.0" stroke="#d9fff0" stroke-width="3" opacity="0.90" stroke-linecap="round"/>
<line x1="78.0" y1="66.0" x2="78.0" y2="78.0" stroke="#d9fff0" stroke-width="3" opacity="0.90" stroke-linecap="round"/>
<line x1="73.5" y1="25.0" x2="78.0" y2="14.6" stroke="#d9fff0" stroke-width="1.6" opacity="0.70" stroke-linecap="round"/>
<line x1="71.1" y1="22.6" x2="69.2" y2="15.9" stroke="#d9fff0" stroke-width="1.6" opacity="0.70" stroke-linecap="round"/>
<line x1="72.0" y1="21.3" x2="74.5" y2="21.0" stroke="#d9fff0" stroke-width="1.6" opacity="0.70" stroke-linecap="round"/>
</g>
</svg>