<?xml version="1.0" encoding="UTF-8"?>
<svg width="86" height="86" viewBox="0 0 86 86" xmlns="http://www.w3.org/2000/svg">
  <defs>
    <clipPath id="shape">
      <path d="M 0 0 L 86 0 L 86 86 L 0 86 Z M 0 43 A 43 43 0 0 1 43 0 L 0 0 Z M 43 0 A 43 43 0 0 1 86 43 L 86 0 Z M 43 86 A 43 43 0 0 1 0 43 L 0 86 Z M 86 43 A 43 43 0 0 1 43 86 L 86 86 Z"/>
    </clipPath>
  </defs>
  <g clip-path="url(#shape)">
    <path d="M 0 0 L 86 0 L 86 86 L 0 86 Z M 0 43 A 43 43 0 0 1 43 0 L 0 0 Z M 43 0 A 43 43 0 0 1 86 43 L 86 0 Z M 43 86 A 43 43 0 0 1 0 43 L 0 86 Z M 86 43 A 43 43 0 0 1 43 86 L 86 86 Z" fill="#000000"/>
    <path d="M 46 55 Q 49 45 54 50 Q 58 40 52 35" fill="none" stroke="#44DDDD" stroke-width="1" stroke-opacity="0.35" stroke-linecap="round"/>
    <path d="M 57 54 Q 60 44 65 49 Q 69 39 63 34" fill="none" stroke="#44DDDD" stroke-width="1" stroke-opacity="0.35" stroke-linecap="round"/>
    <path d="M 61 67 Q 64 57 69 62 Q 73 52 67 47" fill="none" stroke="#44DDDD" stroke-width="1" stroke-opacity="0.35" stroke-linecap="round"/>
    <circle cx="32.8" cy="44.7" r="8.5" fill="none" stroke="#000000" stroke-width="1.275" stroke-opacity="0.8"/>
    <circle cx="53.2" cy="44.7" r="8.5" fill="none" stroke="#000000" stroke-width="1.275" stroke-opacity="0.8"/>
    <line x1="32.8" y1="44.7" x2="40.025" y2="44.7" stroke="#000000" stroke-width="0.595" stroke-opacity="0.6"/>
    <line x1="32.8" y1="44.7" x2="37.908846494072804" y2="49.80884649407281" stroke="#000000" stroke-width="0.595" stroke-opacity="0.6"/>
    <line x1="32.8" y1="44.7" x2="32.8" y2="51.925000000000004" stroke="#000000" stroke-width="0.595" stroke-opacity="0.6"/>
    <line x1="32.8" y1="44.7" x2="27.69115350592719" y2="49.80884649407281" stroke="#000000" stroke-width="0.595" stroke-opacity="0.6"/>
    <line x1="32.8" y1="44.7" x2="25.574999999999996" y2="44.7" stroke="#000000" stroke-width="0.595" stroke-opacity="0.6"/>
    <line x1="32.8" y1="44.7" x2="27.69115350592719" y2="39.591153505927196" stroke="#000000" stroke-width="0.595" stroke-opacity="0.6"/>
    <line x1="32.8" y1="44.7" x2="32.8" y2="37.475" stroke="#000000" stroke-width="0.595" stroke-opacity="0.6"/>
    <line x1="32.8" y1="44.7" x2="37.908846494072804" y2="39.591153505927196" stroke="#000000" stroke-width="0.595" stroke-opacity="0.6"/>
    <line x1="53.2" y1="44.7" x2="60.425000000000004" y2="44.7" stroke="#000000" stroke-width="0.595" stroke-opacity="0.6"/>
    <line x1="53.2" y1="44.7" x2="58.30884649407281" y2="49.80884649407281" stroke="#000000" stroke-width="0.595" stroke-opacity="0.6"/>
    <line x1="53.2" y1="44.7" x2="53.2" y2="51.925000000000004" stroke="#000000" stroke-width="0.595" stroke-opacity="0.6"/>
    <line x1="53.2" y1="44.7" x2="48.091153505927196" y2="49.80884649407281" stroke="#000000" stroke-width="0.595" stroke-opacity="0.6"/>
    <line x1="53.2" y1="44.7" x2="45.975" y2="44.7" stroke="#000000" stroke-width="0.595" stroke-opacity="0.6"/>
    <line x1="53.2" y1="44.7" x2="48.091153505927196" y2="39.591153505927196" stroke="#000000" stroke-width="0.595" stroke-opacity="0.6"/>
    <line x1="53.2" y1="44.7" x2="53.2" y2="37.475" stroke="#000000" stroke-width="0.595" stroke-opacity="0.6"/>
    <line x1="53.2" y1="44.7" x2="58.30884649407281" y2="39.591153505927196" stroke="#000000" stroke-width="0.595" stroke-opacity="0.6"/>
    <circle cx="32.8" cy="44.7" r="1.7" fill="#000000"/>
    <circle cx="53.2" cy="44.7" r="1.7" fill="#000000"/>
    <line x1="40.45" y1="34.5" x2="43" y2="41.3" stroke="#000000" stroke-width="1.7"/>
    <line x1="43" y1="41.3" x2="49.8" y2="32.8" stroke="#000000" stroke-width="1.7"/>
    <line x1="40.45" y1="34.5" x2="49.8" y2="32.8" stroke="#000000" stroke-width="1.275"/>
    <line x1="32.8" y1="44.7" x2="43" y2="41.3" stroke="#000000" stroke-width="1.7"/>
    <line x1="53.2" y1="44.7" x2="43" y2="41.3" stroke="#000000" stroke-width="1.7"/>
    <line x1="53.2" y1="44.7" x2="49.8" y2="32.8" stroke="#000000" stroke-width="1.275"/>
    <ellipse cx="40.45" cy="33.65" rx="3.4" ry="1.275" fill="#000000"/>
    <line x1="48.099999999999994" y1="30.249999999999996" x2="51.5" y2="30.249999999999996" stroke="#000000" stroke-width="1.7"/>
    <line x1="49.8" y1="32.8" x2="49.8" y2="30.249999999999996" stroke="#000000" stroke-width="1.275"/>
    <line x1="40.45" y1="42.15" x2="45.55" y2="40.449999999999996" stroke="#000000" stroke-width="1.7"/>
    <ellipse cx="41.300000000000004" cy="27.7" rx="6.8" ry="5.1" fill="#000000" transform="rotate(6 41.300000000000004 27.7)"/>
    <path d="M 45.550000000000004 25.15 Q 47.25000000000001 21.75 48.1 18.349999999999998" stroke="#000000" stroke-width="2.975" fill="none" stroke-linecap="round"/>
    <circle cx="48.1" cy="17.499999999999996" r="3.4" fill="#000000"/>
    <circle cx="49.375" cy="16.649999999999995" r="1.02" fill="#FFFFFF"/>
    <path d="M 51.075 16.649999999999995 L 59.575 17.499999999999996 L 58.725 19.2 Z" fill="#000000"/>
    <path d="M 51.075 18.349999999999998 L 59.575 19.2 Q 57.025000000000006 23.449999999999996 51.075 21.749999999999996" fill="#000000" fill-opacity="0.9"/>
    <path d="M 37.900000000000006 26.85 Q 34.5 31.1 38.75 31.95 Q 41.300000000000004 30.25 42.150000000000006 27.7 Z" fill="#000000" fill-opacity="0.85"/>
    <path d="M 35.35000000000001 28.55 L 31.10000000000001 26.0 L 31.95000000000001 29.400000000000002 L 30.250000000000007 30.25" fill="none" stroke="#000000" stroke-width="1.53" stroke-linecap="round"/>
    <line x1="41.300000000000004" y1="31.949999999999996" x2="41.3" y2="39.599999999999994" stroke="#000000" stroke-width="1.275"/>
    <line x1="43.00000000000001" y1="32.8" x2="44.7" y2="39.599999999999994" stroke="#000000" stroke-width="1.275"/>
  </g>
</svg>