<?xml version="1.0" encoding="UTF-8"?>
<svg width="86" height="86" viewBox="0 0 86 86" xmlns="http://www.w3.org/2000/svg">
<defs>
<linearGradient id="g232" x1="0" y1="0" x2="1" y2="1"><stop offset="0" stop-color="#134e5e"/><stop offset="1" stop-color="#71b280"/></linearGradient>
<clipPath id="c1232" clip-rule="evenodd"><path d="M 0 0 L 86.0 0 L 86.0 86.0 L 0 86.0 Z M 0 43 A 43.0 43.0 0 0 1 43.0 0.0 L 0 0 Z" fill-rule="evenodd"/></clipPath>
</defs>
<g clip-path="url(#c1232)">
<rect width="86" height="86" fill="url(#g232)"/>
<path d="M 28.0 80.0 L 28.0 38.0 L 36.0 34.0 L 36.0 26.0 L 30.0 26.0 L 30.0 18.0 L 56.0 18.0 L 56.0 26.0 L 50.0 26.0 L 50.0 34.0 L 58.0 38.0 L 58.0 80.0 Z" fill="#3e5a6b"/>
<path d="M 28.0 80.0 L 28.0 38.0 L 43.0 46.0 L 58.0 38.0 L 58.0 80.0 Z" fill="#2c4050"/>
<path d="M 38.0 24.0 L 48.0 24.0 L 46.0 12.0 L 40.0 12.0 Z" fill="#e74c3c"/>
<circle cx="43.0" cy="20.0" r="2.0" fill="#ffd166"/>
<path d="M -5 12 L 30 12 L 30 40 L 48 40 L 48 22 L 70 22" fill="none" opacity="0.30" stroke="#d9f7c4" stroke-width="1.5" stroke-linecap="round" stroke-linejoin="round"/>
<path d="M 90 60 L 60 60 L 60 44 L 40 44 L 40 72 L 10 72" fill="none" opacity="0.30" stroke="#d9f7c4" stroke-width="1.5" stroke-linecap="round" stroke-linejoin="round"/>
<path d="M 20 90 L 20 66 L 44 66 L 44 52 L 90 52" fill="none" opacity="0.30" stroke="#d9f7c4" stroke-width="1.5" stroke-linecap="round" stroke-linejoin="round"/>
<path d="M -5 86 L 14 86 L 14 34 L 52 34" fill="none" opacity="0.30" stroke="#d9f7c4" stroke-width="1.5" stroke-linecap="round" stroke-linejoin="round"/>
<circle cx="30.0" cy="12.0" r="1.8" fill="#d9f7c4" opacity="0.50"/>
<circle cx="48.0" cy="22.0" r="1.8" fill="#d9f7c4" opacity="0.50"/>
<circle cx="70.0" cy="22.0" r="1.8" fill="#d9f7c4" opacity="0.50"/>
<circle cx="60.0" cy="60.0" r="1.8" fill="#d9f7c4" opacity="0.50"/>
<circle cx="40.0" cy="72.0" r="1.8" fill="#d9f7c4" opacity="0.50"/>
<circle cx="10.0" cy="72.0" r="1.8" fill="#d9f7c4" opacity="0.50"/>
<circle cx="20.0" cy="66.0" r="1.8" fill="#d9f7c4" opacity="0.50"/>
<circle cx="44.0" cy="52.0" r="1.8" fill="#d9f7c4" opacity="0.50"/>
<circle cx="14.0" cy="34.0" r="1.8" fill="#d9f7c4" opacity="0.50"/>
</g>
</svg>
