<?xml version="1.0" encoding="UTF-8"?>
<svg width="86" height="86" viewBox="0 0 86 86" xmlns="http://www.w3.org/2000/svg">
  <defs>
    <clipPath id="ccarkingarena">
      <path d="M 0 0 L 86.0 0 L 86.0 86.0 L 0 86.0 Z" fill-rule="evenodd"/>
    </clipPath>
<linearGradient id="carkingarena_bg" x1="0" y1="0" x2="0" y2="1"><stop offset="0" stop-color="#2a1740"/><stop offset="1" stop-color="#f4d03f"/></linearGradient>
<linearGradient id="carkingarena_road" x1="0" y1="0" x2="0" y2="1"><stop offset="0" stop-color="#2a2d34"/><stop offset="1" stop-color="#191b20"/></linearGradient>
  </defs>
  <g clip-path="url(#ccarkingarena)">
<rect x="0" y="0" width="86" height="86" rx="0" fill="url(#carkingarena_bg)" />
<polygon points="8,86 78,86 56,48 30,48" fill="url(#carkingarena_road)" />
<line x1="43" y1="48" x2="43" y2="86" stroke="#f4d03f" stroke-width="2.2" stroke-dasharray="7 7"/>
<line x1="10" y1="56" x2="24" y2="56" stroke="#f7e082" stroke-width="1.6" opacity="0.5"/>
<line x1="62" y1="56" x2="76" y2="56" stroke="#f7e082" stroke-width="1.6" opacity="0.5"/>
<line x1="10" y1="68" x2="24" y2="68" stroke="#f7e082" stroke-width="1.6" opacity="0.5"/>
<line x1="62" y1="68" x2="76" y2="68" stroke="#f7e082" stroke-width="1.6" opacity="0.5"/>
<line x1="10" y1="80" x2="24" y2="80" stroke="#f7e082" stroke-width="1.6" opacity="0.5"/>
<line x1="62" y1="80" x2="76" y2="80" stroke="#f7e082" stroke-width="1.6" opacity="0.5"/>
<circle cx="24" cy="66" r="7" fill="#14161a" />
<circle cx="62" cy="66" r="7" fill="#14161a" />
<circle cx="24" cy="66" r="2.4" fill="#c9cdd6" />
<circle cx="62" cy="66" r="2.4" fill="#c9cdd6" />
<circle cx="18" cy="82" r="2.2" fill="#e8eaef" />
<circle cx="31" cy="82" r="2.2" fill="#e8eaef" />
<circle cx="44" cy="82" r="2.2" fill="#e8eaef" />
<circle cx="57" cy="82" r="2.2" fill="#e8eaef" />
<rect x="6" y="14" width="4" height="4" rx="0" fill="#f4d03f" />
<rect x="13" y="14" width="4" height="4" rx="0" fill="#1b1d22" />
<rect x="20" y="14" width="4" height="4" rx="0" fill="#f4d03f" />
<rect x="27" y="14" width="4" height="4" rx="0" fill="#1b1d22" />
<rect x="34" y="14" width="4" height="4" rx="0" fill="#f4d03f" />
  </g>
</svg>
