<?xml version="1.0" encoding="UTF-8"?>
<svg width="86" height="86" viewBox="0 0 86 86" xmlns="http://www.w3.org/2000/svg">
<defs>
<clipPath id="c"><path d="M 0 0 L 86.0 0 L 86.0 86.0 L 0 86.0 Z M 43 0 A 43.0 43.0 0 0 1 86.0 43.0 L 86 0 Z" clip-rule="evenodd"/></clipPath>
<linearGradient id="bg" x1="0" y1="0" x2="1" y2="1"><stop offset="0" stop-color="hsl(210,20%,30%)"/><stop offset="1" stop-color="hsl(210,25%,10%)"/></linearGradient><linearGradient id="metal" x1="0" y1="0" x2="1" y2="1"><stop offset="0" stop-color="#e8eef2"/><stop offset="0.5" stop-color="#9fb2bd"/><stop offset="1" stop-color="#5d707c"/></linearGradient>
</defs>
<path d="M 0 0 L 86.0 0 L 86.0 86.0 L 0 86.0 Z M 43 0 A 43.0 43.0 0 0 1 86.0 43.0 L 86 0 Z" fill="#000000" fill-rule="evenodd"/>
<g clip-path="url(#c)">
<rect x="0" y="0" width="86" height="86" fill="url(#bg)"/>
<path d="M 24 10 L 76 62 L 66 72 L 14 20 Z" fill="url(#metal)"/>
<path d="M 62 10 L 10 62 L 20 72 L 72 20 Z" fill="url(#metal)"/>
<path d="M 43 22 L 58 43 L 43 64 L 28 43 Z" fill="hsl(20,90%,55%)"/>
<path d="M 43 32 L 51 43 L 43 54 L 35 43 Z" fill="hsl(38,95%,62%)"/>
<circle cx="43" cy="43" r="6" fill="#fff" opacity="0.85"/>
</g>
</svg>
