<svg xmlns="http://www.w3.org/2000/svg" width="86" height="86" viewBox="0 0 86 86">
<defs>
<clipPath id="i1854155767c"><path d="M 0 0 L 86.0 0 L 86.0 86.0 L 0 86.0 Z M 0 43 A 43.0 43.0 0 0 1 43.0 0.0 L 0 0 Z M 43 0 A 43.0 43.0 0 0 1 86.0 43.0 L 86 0 Z" fill-rule="evenodd"/></clipPath>
<linearGradient id="i1854155767g" x1="0.3" y1="0" x2="0.7" y2="1"><stop offset="0" stop-color="#8a5a28"/><stop offset="1" stop-color="#eab256"/></linearGradient>
<radialGradient id="i1854155767r" cx="0.42" cy="0.36" r="0.75"><stop offset="0" stop-color="#ffffff" stop-opacity="0.32"/><stop offset="1" stop-color="#ffffff" stop-opacity="0"/></radialGradient>
</defs>
<path d="M 0 0 L 86.0 0 L 86.0 86.0 L 0 86.0 Z M 0 43 A 43.0 43.0 0 0 1 43.0 0.0 L 0 0 Z M 43 0 A 43.0 43.0 0 0 1 86.0 43.0 L 86 0 Z" fill="url(#i1854155767g)" fill-rule="evenodd"/>
<g clip-path="url(#i1854155767c)">
<circle cx="36" cy="31" r="40" fill="url(#i1854155767r)"/>
<circle cx="43.0" cy="47.0" r="19.0" fill="#fff4e0" opacity="0.95"/>
<polygon points="29.0,36.0 22.0,16.0 38.0,30.0" fill="#fff4e0" opacity="0.95"/>
<polygon points="57.0,36.0 64.0,16.0 48.0,30.0" fill="#fff4e0" opacity="0.95"/>
<circle cx="37.0" cy="45.0" r="3.0" fill="#ffffff" opacity="0.95"/>
<circle cx="49.0" cy="45.0" r="3.0" fill="#ffffff" opacity="0.95"/>
<path d="M 38 56 Q 43 60 48 56" opacity="0.95" fill="none" stroke="#ffffff" stroke-width="2.4" stroke-linecap="round" stroke-linejoin="round"/>
</g>
</svg>