<?xml version="1.0" encoding="UTF-8"?>
<svg width="86" height="86" viewBox="0 0 86 86" xmlns="http://www.w3.org/2000/svg" role="img" aria-label="Duck Life 5">
<defs>
<clipPath id="cg64"><path d="M 0 0 L 86.0 0 L 86.0 86.0 L 0 86.0 Z" clip-rule="evenodd"/></clipPath>
<linearGradient id="bg64" x1="1" y1="1" x2="0" y2="0">
  <stop offset="0" stop-color="#ffe36a"/><stop offset="1" stop-color="#f29b12"/>
</linearGradient>
<linearGradient id="hg64" x1="0" y1="0" x2="0" y2="1">
  <stop offset="0" stop-color="#ffffff" stop-opacity="0.55"/><stop offset="1" stop-color="#ffffff" stop-opacity="0"/>
</linearGradient>
</defs>
<g clip-path="url(#cg64)">
  <path d="M 0 0 L 86.0 0 L 86.0 86.0 L 0 86.0 Z" fill="url(#bg64)"/>
  <ellipse cx="43" cy="10" rx="52" ry="26" fill="url(#hg64)" opacity="0.5"/>
  <circle cx="43" cy="43" r="34" fill="#ffffff" opacity="0.05"/>
<g transform="translate(86 0) scale(-1 1)"><circle cx="34.6" cy="40.1" r="15" fill="#FFF6D9" opacity="0.92"/><circle cx="21.6" cy="31.1" r="6" fill="#FFF6D9" opacity="0.85"/><circle cx="34.6" cy="26.1" r="6" fill="#FFF6D9" opacity="0.85"/><circle cx="47.6" cy="31.1" r="6" fill="#FFF6D9" opacity="0.85"/><circle cx="34.6" cy="40.1" r="22" fill="none" stroke="#FFF6D9" stroke-width="1.6" opacity="0.55"/></g>
</g>
<path d="M 0 0 L 86.0 0 L 86.0 86.0 L 0 86.0 Z" fill="none" stroke="#ffffff" stroke-opacity="0.35" stroke-width="1.6"/>
<path d="M 0 0 L 86.0 0 L 86.0 86.0 L 0 86.0 Z" fill="none" stroke="#000000" stroke-opacity="0.18" stroke-width="1.6" transform="translate(0 1.6)"/>
</svg>
