<?xml version="1.0" encoding="UTF-8"?>
<svg width="86" height="86" viewBox="0 0 86 86" xmlns="http://www.w3.org/2000/svg">
  <defs>
    <clipPath id="shape">
      <path d="M 0 0 L 86.0 0 L 86.0 86.0 L 0 86.0 Z M 0 43 A 43.0 43.0 0 0 1 43.0 0.0 L 0 0 Z M 43 0 A 43.0 43.0 0 0 1 86.0 43.0 L 86 0 Z M 43 86 A 43.0 43.0 0 0 1 0.0 43.0 L 0 86 Z" fill="#000000" fill-rule="evenodd"/>
    </clipPath>
    <linearGradient id="g0" x1="0" y1="0" x2="86" y2="86" gradientUnits="userSpaceOnUse">
      <stop offset="0" stop-color="#b94bd2"/>
      <stop offset="1" stop-color="#471353"/>
    </linearGradient>
    <radialGradient id="g1" cx="0.30" cy="0.22" r="0.95">
      <stop offset="0" stop-color="#ffffff" stop-opacity="0.30"/>
      <stop offset="1" stop-color="#ffffff" stop-opacity="0"/>
    </radialGradient>
  </defs>
  <g clip-path="url(#shape)">
    <rect x="0" y="0" width="86" height="86" fill="url(#g0)"/>
    <rect x="0" y="0" width="86" height="86" fill="url(#g1)"/>
    <path d="M 34 16 L 48 16 L 48 34 Q 44 44 38 40 Q 32 38 32 28 Z" fill="#cf3075" stroke="#ffffff" stroke-width="2"/>
    <path d="M 36 14 L 46 14 L 46 20 L 36 20 Z" fill="#e4a6f2" stroke="#ffffff" stroke-width="1.6"/>
    <polygon points="30,44 44,44 38,58" fill="#45d958"/>
    <polygon points="32,58 40,58 36,70" fill="#ffffff" opacity="0.9"/>
    <polygon points="36,58 42,58 39,68" fill="#cf3075" opacity="0.9"/>
    <line x1="34" y1="16" x2="18" y2="10" stroke="#ffffff" stroke-width="2.4" stroke-linecap="round"/>
    <line x1="48" y1="16" x2="64" y2="10" stroke="#ffffff" stroke-width="2.4" stroke-linecap="round"/>
    <circle cx="60" cy="30" r="3" fill="#ffffff"/>
    <circle cx="22" cy="34" r="2.4" fill="#ffffff"/>
  </g>
</svg>
