<?xml version="1.0" encoding="UTF-8"?>
<svg width="86" height="86" viewBox="0 0 86 86" xmlns="http://www.w3.org/2000/svg">
  <defs>
    <clipPath id="shape"><path d="M 0 0 L 86.0 0 L 86.0 86.0 L 0 86.0 Z M 0 43 A 43.0 43.0 0 0 1 43.0 0.0 L 0 0 Z M 43 0 A 43.0 43.0 0 0 1 86.0 43.0 L 86 0 Z"/></clipPath>
    <linearGradient id="bg" x1="0" y1="0" x2="0" y2="86" gradientTransform="rotate(54.6 43 43)">
      <stop offset="0" stop-color="#43a047"/>
      <stop offset="1" stop-color="#1b5e20"/>
    </linearGradient>
    <radialGradient id="halo" cx="38.6%" cy="32.4%" r="60%">
      <stop offset="0" stop-color="#d7a86e" stop-opacity="0.55"/>
      <stop offset="1" stop-color="#d7a86e" stop-opacity="0"/>
    </radialGradient>
    <linearGradient id="shine" x1="0" y1="0" x2="0" y2="1">
      <stop offset="0" stop-color="#ffffff" stop-opacity="0.4"/>
      <stop offset="0.55" stop-color="#ffffff" stop-opacity="0"/>
      <stop offset="0.8" stop-color="#000000" stop-opacity="0"/>
      <stop offset="1" stop-color="#000000" stop-opacity="0.35"/>
    </linearGradient>
  </defs>
  <g clip-path="url(#shape)">
    <rect width="86" height="86" fill="url(#bg)"/>
    <rect width="86" height="86" fill="url(#halo)"/>
    <g transform="rotate(3.9 43 43)">
    <polygon points="20,44 33,36 46,44 33,51" fill="#43a047"/>
    <polygon points="20,44 33,51 33,58 20,50" fill="#d7a86e"/>
    <polygon points="33,36 46,44 46,50 33,43" fill="#1b5e20"/>
    <polygon points="42,40 55,32 68,40 55,47" fill="#43a047"/>
    <polygon points="42,40 55,47 55,54 42,46" fill="#d7a86e"/>
    <polygon points="55,32 68,40 68,46 55,39" fill="#1b5e20"/>
    <polygon points="60,50 72,43 84,50 72,56" fill="#43a047"/>
    <polygon points="60,50 72,56 72,63 60,56" fill="#d7a86e"/>
    <polygon points="72,43 84,50 84,56 72,49" fill="#1b5e20"/>
    <polygon points="35,23 41,19 47,23 41,26" fill="#43a047"/>
    <polygon points="35,23 41,26 41,29 35,26" fill="#d7a86e"/>
    <polygon points="41,19 47,23 47,26 41,22" fill="#1b5e20"/>
    <polygon points="32,21 37,18 42,21 37,23" fill="#43a047"/>
    <polygon points="32,21 37,23 37,26 32,23" fill="#d7a86e"/>
    <polygon points="37,18 42,21 42,23 37,20" fill="#1b5e20"/>
    <polygon points="40,19 46,15 52,19 46,22" fill="#43a047"/>
    <polygon points="40,19 46,22 46,25 40,22" fill="#d7a86e"/>
    <polygon points="46,15 52,19 52,22 46,18" fill="#1b5e20"/>
    <rect x="29" y="14" width="3" height="3" fill="#e8f5e9" opacity="0.5"/>
    <rect x="18" y="47" width="3" height="3" fill="#e8f5e9" opacity="0.5"/>
    <rect x="78" y="40" width="3" height="3" fill="#e8f5e9" opacity="0.5"/>
    <rect x="52" y="8" width="3" height="3" fill="#e8f5e9" opacity="0.5"/>
    <rect x="41" y="34" width="3" height="3" fill="#e8f5e9" opacity="0.5"/>
    <rect x="49" y="23" width="3" height="3" fill="#e8f5e9" opacity="0.5"/>
    </g>
    <rect width="86" height="86" fill="url(#shine)"/>
  </g>
  <path d="M 0 0 L 86.0 0 L 86.0 86.0 L 0 86.0 Z M 0 43 A 43.0 43.0 0 0 1 43.0 0.0 L 0 0 Z M 43 0 A 43.0 43.0 0 0 1 86.0 43.0 L 86 0 Z" fill="none" stroke="#ffffff" stroke-opacity="0.55" stroke-width="2"/>
</svg>
