<?xml version="1.0" encoding="UTF-8"?>
<svg width="86" height="86" viewBox="0 0 86 86" xmlns="http://www.w3.org/2000/svg">
  <defs>
    <clipPath id="c150"><path d="M 0 0 L 86.0 0 L 86.0 86.0 L 0 86.0 Z M 43 0 A 43.0 43.0 0 0 1 86.0 43.0 L 86 0 Z M 43 86 A 43.0 43.0 0 0 1 0.0 43.0 L 0 86 Z" fill-rule="evenodd"/></clipPath>
    <linearGradient id="bg150" x1="0" y1="0" x2="1" y2="1">
      <stop offset="0" stop-color="#EC407A"/>
      <stop offset="1" stop-color="#AD1457"/>
    </linearGradient>
  </defs>
  <g clip-path="url(#c150)">
    <rect width="86" height="86" fill="url(#bg150)"/>
    <g transform="translate(86 0) scale(-1 1)">
      <ellipse cx="43" cy="48" rx="19" ry="18" fill="#ffffff"/>
    <ellipse cx="30" cy="24" rx="6" ry="13" fill="#ffffff" transform="rotate(-14 30 24)"/>
    <ellipse cx="56" cy="24" rx="6" ry="13" fill="#ffffff" transform="rotate(14 56 24)"/>
    <circle cx="38" cy="46" r="2.8" fill="#EC407A"/>
    <circle cx="48" cy="46" r="2.8" fill="#EC407A"/>
    <ellipse cx="43" cy="53" rx="4" ry="3" fill="#AD1457"/>
    </g>
    <ellipse cx="30" cy="18" rx="44" ry="24" fill="#ffffff" opacity="0.13" transform="rotate(-18 30 18)"/>
  </g>
</svg>
