<?xml version="1.0" encoding="UTF-8"?>
<svg width="86" height="86" viewBox="0 0 86 86" xmlns="http://www.w3.org/2000/svg">
<defs><clipPath id="clip"><path d="M 0 0 L 86.0 0 L 86.0 86.0 L 0 86.0 Z M 43 0 A 43.0 43.0 0 0 1 86.0 43.0 L 86 0 Z M 43 86 A 43.0 43.0 0 0 1 0.0 43.0 L 0 86 Z M 86 43 A 43.0 43.0 0 0 1 43.0 86.0 L 86 86 Z" clip-rule="evenodd"/></clipPath><linearGradient id="bg" x1="0" y1="0" x2="1" y2="1"><stop offset="0" stop-color="#ffb9a3"/><stop offset="1" stop-color="#f03a5c"/></linearGradient></defs><g clip-path="url(#clip)"><rect width="86" height="86" fill="url(#bg)"/><circle cx="25" cy="22" r="1.2" fill="#fff" opacity=".09"/><circle cx="23" cy="59" r="1.2" fill="#fff" opacity=".09"/><circle cx="67" cy="33" r="0.8" fill="#fff" opacity=".09"/><circle cx="38" cy="48" r="1.6" fill="#fff" opacity=".09"/><circle cx="33" cy="20" r="0.8" fill="#fff" opacity=".09"/><circle cx="19" cy="64" r="1.6" fill="#fff" opacity=".09"/><circle cx="29" cy="57" r="0.8" fill="#fff" opacity=".09"/><circle cx="34" cy="35" r="1.6" fill="#fff" opacity=".09"/><circle cx="66" cy="47" r="1.2" fill="#fff" opacity=".09"/><circle cx="22" cy="47" r="1.6" fill="#fff" opacity=".09"/><circle cx="34" cy="36" r="1.2" fill="#fff" opacity=".09"/><circle cx="19" cy="66" r="0.8" fill="#fff" opacity=".09"/><circle cx="27" cy="26" r="0.8" fill="#fff" opacity=".09"/><circle cx="66" cy="54" r="1.6" fill="#fff" opacity=".09"/><g transform="translate(0 0)"><circle cx="43" cy="43" r="24" fill="#ffffff" opacity=".95"/><circle cx="43" cy="43" r="24" fill="none" stroke="#2a2a35" stroke-width="1.5"/><polygon points="43,26 48,35 43,33 38,35" fill="#2a2a35"/><g transform="rotate(72 43 43)"><polygon points="43,26 48,35 43,33 38,35" fill="#2a2a35"/></g><g transform="rotate(144 43 43)"><polygon points="43,26 48,35 43,33 38,35" fill="#2a2a35"/></g><g transform="rotate(216 43 43)"><polygon points="43,26 48,35 43,33 38,35" fill="#2a2a35"/></g><g transform="rotate(288 43 43)"><polygon points="43,26 48,35 43,33 38,35" fill="#2a2a35"/></g></g></g><path d="M 0 0 L 86.0 0 L 86.0 86.0 L 0 86.0 Z M 43 0 A 43.0 43.0 0 0 1 86.0 43.0 L 86 0 Z M 43 86 A 43.0 43.0 0 0 1 0.0 43.0 L 0 86 Z M 86 43 A 43.0 43.0 0 0 1 43.0 86.0 L 86 86 Z" fill="none" stroke="rgba(255,255,255,0.28)" stroke-width="1.4"/>
</svg>
