<svg width="86" height="86" viewBox="0 0 86 86" xmlns="http://www.w3.org/2000/svg">
  <defs>
    <clipPath id="c163">
      <path d="M 0 0 L 86.0 0 L 86.0 86.0 L 0 86.0 Z M 0 43 A 43.0 43.0 0 0 1 43.0 0.0 L 0 0 Z M 43 0 A 43.0 43.0 0 0 1 86.0 43.0 L 86 0 Z" fill-rule="evenodd"/>
    </clipPath>
    <linearGradient id="g163" gradientTransform="rotate(271 43 43)">
      <stop offset="0" stop-color="#adb5bd"/>
      <stop offset="1" stop-color="#343a40"/>
    </linearGradient>
    <radialGradient id="h163" cx="0.3" cy="0.25" r="0.8">
      <stop offset="0" stop-color="#ffffff" stop-opacity="0.55"/>
      <stop offset="0.6" stop-color="#ffffff" stop-opacity="0.12"/>
      <stop offset="1" stop-color="#ffffff" stop-opacity="0"/>
    </radialGradient>
  </defs>
  <path d="M 0 0 L 86.0 0 L 86.0 86.0 L 0 86.0 Z M 0 43 A 43.0 43.0 0 0 1 43.0 0.0 L 0 0 Z M 43 0 A 43.0 43.0 0 0 1 86.0 43.0 L 86 0 Z" fill="#000000" fill-rule="evenodd"/>
  <g clip-path="url(#c163)">
    <rect width="86" height="86" fill="url(#g163)"/>
    <circle cx="12" cy="12" r="0.9" fill="#ffffff" opacity="0.10"/><circle cx="12" cy="26" r="0.9" fill="#ffffff" opacity="0.10"/><circle cx="12" cy="40" r="0.9" fill="#ffffff" opacity="0.10"/><circle cx="12" cy="54" r="0.9" fill="#ffffff" opacity="0.10"/><circle cx="12" cy="68" r="0.9" fill="#ffffff" opacity="0.10"/><circle cx="26" cy="12" r="0.9" fill="#ffffff" opacity="0.10"/><circle cx="26" cy="26" r="0.9" fill="#ffffff" opacity="0.10"/><circle cx="26" cy="40" r="0.9" fill="#ffffff" opacity="0.10"/><circle cx="26" cy="54" r="0.9" fill="#ffffff" opacity="0.10"/><circle cx="26" cy="68" r="0.9" fill="#ffffff" opacity="0.10"/><circle cx="40" cy="12" r="0.9" fill="#ffffff" opacity="0.10"/><circle cx="40" cy="26" r="0.9" fill="#ffffff" opacity="0.10"/><circle cx="40" cy="40" r="0.9" fill="#ffffff" opacity="0.10"/><circle cx="40" cy="54" r="0.9" fill="#ffffff" opacity="0.10"/><circle cx="40" cy="68" r="0.9" fill="#ffffff" opacity="0.10"/><circle cx="54" cy="12" r="0.9" fill="#ffffff" opacity="0.10"/><circle cx="54" cy="26" r="0.9" fill="#ffffff" opacity="0.10"/><circle cx="54" cy="40" r="0.9" fill="#ffffff" opacity="0.10"/><circle cx="54" cy="54" r="0.9" fill="#ffffff" opacity="0.10"/><circle cx="54" cy="68" r="0.9" fill="#ffffff" opacity="0.10"/><circle cx="68" cy="12" r="0.9" fill="#ffffff" opacity="0.10"/><circle cx="68" cy="26" r="0.9" fill="#ffffff" opacity="0.10"/><circle cx="68" cy="40" r="0.9" fill="#ffffff" opacity="0.10"/><circle cx="68" cy="54" r="0.9" fill="#ffffff" opacity="0.10"/><circle cx="68" cy="68" r="0.9" fill="#ffffff" opacity="0.10"/>
    <g transform="translate(-1 2)"><circle cx="43" cy="43" r="15" fill="none" stroke="#f1f3f5" stroke-width="2.6"/><path d="M43 20 V34 M43 52 V66 M20 43 H34 M52 43 H66" stroke="#f1f3f5" stroke-width="2.6" stroke-linecap="round"/><circle cx="43" cy="43" r="2.6" fill="#f1f3f5"/></g>
    <rect width="86" height="86" fill="url(#h163)"/>
  </g>
</svg>
