<?xml version="1.0" encoding="UTF-8"?>
<svg xmlns="http://www.w3.org/2000/svg" width="86" height="86" viewBox="0 0 86 86">
<defs>
<linearGradient id="bg" x1="0" y1="0" x2="0.35" y2="1">
<stop offset="0" stop-color="#e74c3c"/>
<stop offset="1" stop-color="#7a1010"/>
</linearGradient>
<clipPath id="cp"><path d="M 0 0 L 86.0 0 L 86.0 86.0 L 0 86.0 Z M 0 43 A 43.0 43.0 0 0 1 43.0 0.0 L 0 0 Z M 43 86 A 43.0 43.0 0 0 1 0.0 43.0 L 0 86 Z" clip-rule="evenodd"/></clipPath></defs>
<g clip-path="url(#cp)">
<rect x="-1" y="-1" width="88" height="88" fill="url(#bg)"/>
<line x1="0.0" y1="3.0" x2="86.0" y2="3.0" stroke="#ffe9b0" stroke_width="1.0" opacity="0.12" stroke_linecap="round"/><line x1="0.0" y1="8.0" x2="86.0" y2="8.0" stroke="#ffe9b0" stroke_width="1.0" opacity="0.12" stroke_linecap="round"/><line x1="0.0" y1="13.0" x2="86.0" y2="13.0" stroke="#ffe9b0" stroke_width="1.0" opacity="0.12" stroke_linecap="round"/><line x1="0.0" y1="18.0" x2="86.0" y2="18.0" stroke="#ffe9b0" stroke_width="1.0" opacity="0.12" stroke_linecap="round"/><line x1="0.0" y1="23.0" x2="86.0" y2="23.0" stroke="#ffe9b0" stroke_width="1.0" opacity="0.12" stroke_linecap="round"/><line x1="0.0" y1="28.0" x2="86.0" y2="28.0" stroke="#ffe9b0" stroke_width="1.0" opacity="0.12" stroke_linecap="round"/><line x1="0.0" y1="33.0" x2="86.0" y2="33.0" stroke="#ffe9b0" stroke_width="1.0" opacity="0.12" stroke_linecap="round"/><line x1="0.0" y1="38.0" x2="86.0" y2="38.0" stroke="#ffe9b0" stroke_width="1.0" opacity="0.12" stroke_linecap="round"/><line x1="0.0" y1="43.0" x2="86.0" y2="43.0" stroke="#ffe9b0" stroke_width="1.0" opacity="0.12" stroke_linecap="round"/><line x1="0.0" y1="48.0" x2="86.0" y2="48.0" stroke="#ffe9b0" stroke_width="1.0" opacity="0.12" stroke_linecap="round"/><line x1="0.0" y1="53.0" x2="86.0" y2="53.0" stroke="#ffe9b0" stroke_width="1.0" opacity="0.12" stroke_linecap="round"/><line x1="0.0" y1="58.0" x2="86.0" y2="58.0" stroke="#ffe9b0" stroke_width="1.0" opacity="0.12" stroke_linecap="round"/><line x1="0.0" y1="63.0" x2="86.0" y2="63.0" stroke="#ffe9b0" stroke_width="1.0" opacity="0.12" stroke_linecap="round"/><line x1="0.0" y1="68.0" x2="86.0" y2="68.0" stroke="#ffe9b0" stroke_width="1.0" opacity="0.12" stroke_linecap="round"/><line x1="0.0" y1="73.0" x2="86.0" y2="73.0" stroke="#ffe9b0" stroke_width="1.0" opacity="0.12" stroke_linecap="round"/><line x1="0.0" y1="78.0" x2="86.0" y2="78.0" stroke="#ffe9b0" stroke_width="1.0" opacity="0.12" stroke_linecap="round"/><line x1="0.0" y1="83.0" x2="86.0" y2="83.0" stroke="#ffe9b0" stroke_width="1.0" opacity="0.12" stroke_linecap="round"/>
<ellipse cx="43" cy="15" rx="46" ry="24" fill="#ffffff" opacity="0.10"/>
<ellipse cx="43" cy="76" rx="46" ry="16" fill="#000000" opacity="0.14"/>
<rect x="18.0" y="44.0" width="50.0" height="12.0" fill="#c0392b" opacity="1" rx="4.0"/><rect x="27.0" y="34.0" width="24.0" height="12.0" fill="#4c0a0a" opacity="1" rx="3.0"/><rect x="30.0" y="37.0" width="18.0" height="3.5" fill="#ffe9b0" opacity="0.35"/><circle cx="29.0" cy="58.0" r="7.5" fill="#4c0a0a" opacity="1"/><circle cx="57.0" cy="58.0" r="7.5" fill="#4c0a0a" opacity="1"/><circle cx="29.0" cy="58.0" r="3.0" fill="#ffd34d" opacity="1"/><circle cx="57.0" cy="58.0" r="3.0" fill="#ffd34d" opacity="1"/><rect x="64.0" y="47.0" width="5.0" height="4.0" fill="#ffd34d" opacity="1" rx="1.0"/>
</g>
</svg>
