<?xml version="1.0" encoding="UTF-8"?>
<svg xmlns="http://www.w3.org/2000/svg" width="86" height="86" viewBox="0 0 86 86">
<defs>
<linearGradient id="bg" x1="0" y1="0" x2="0.35" y2="1">
<stop offset="0" stop-color="#3b6ea5"/>
<stop offset="1" stop-color="#1d3a56"/>
</linearGradient>
<clipPath id="cp"><path d="M 0 0 L 86.0 0 L 86.0 86.0 L 0 86.0 Z M 43 0 A 43.0 43.0 0 0 1 86.0 43.0 L 86 0 Z M 43 86 A 43.0 43.0 0 0 1 0.0 43.0 L 0 86 Z M 86 43 A 43.0 43.0 0 0 1 43.0 86.0 L 86 86 Z" clip-rule="evenodd"/></clipPath></defs>
<g clip-path="url(#cp)">
<rect x="-1" y="-1" width="88" height="88" fill="url(#bg)"/>
<rect x="49.3" y="52.9" width="3.4" height="3.4" fill="#cde8a0" opacity="0.463782"/><rect x="40.4" y="55.1" width="2.2" height="2.2" fill="#d7d7d7" opacity="0.44841"/><rect x="22.9" y="15.9" width="3.4" height="3.4" fill="#7ab356" opacity="0.254505"/><rect x="74.7" y="69.3" width="3.4" height="3.4" fill="#d7d7d7" opacity="0.591069"/><rect x="64.5" y="59.4" width="3.4" height="3.4" fill="#d7d7d7" opacity="0.565639"/><rect x="60.4" y="17.1" width="3.4" height="3.4" fill="#7ab356" opacity="0.364"/><rect x="31.2" y="28.5" width="3.4" height="3.4" fill="#cde8a0" opacity="0.473366"/><rect x="68.5" y="24.5" width="2.2" height="2.2" fill="#d7d7d7" opacity="0.338692"/><rect x="19.3" y="40.2" width="4.6" height="4.6" fill="#cde8a0" opacity="0.507093"/><rect x="17.4" y="50.0" width="4.6" height="4.6" fill="#cde8a0" opacity="0.592064"/><rect x="32.5" y="44.6" width="2.2" height="2.2" fill="#d7d7d7" opacity="0.396147"/><rect x="53.2" y="61.5" width="4.6" height="4.6" fill="#7ab356" opacity="0.442342"/><rect x="73.0" y="64.8" width="2.2" height="2.2" fill="#7ab356" opacity="0.312948"/><rect x="7.2" y="4.7" width="3.4" height="3.4" fill="#7ab356" opacity="0.495453"/><rect x="12.1" y="22.0" width="4.6" height="4.6" fill="#7ab356" opacity="0.436212"/><rect x="64.4" y="43.8" width="3.4" height="3.4" fill="#7ab356" opacity="0.266502"/><rect x="8.4" y="30.1" width="2.2" height="2.2" fill="#7ab356" opacity="0.338537"/><rect x="5.6" y="28.2" width="3.4" height="3.4" fill="#d7d7d7" opacity="0.556286"/><rect x="26.6" y="23.7" width="3.4" height="3.4" fill="#d7d7d7" opacity="0.426976"/><rect x="71.6" y="23.3" width="2.2" height="2.2" fill="#d7d7d7" opacity="0.365704"/><rect x="64.3" y="26.7" width="4.6" height="4.6" fill="#7ab356" opacity="0.27965"/>
<ellipse cx="43" cy="15" rx="46" ry="24" fill="#ffffff" opacity="0.10"/>
<ellipse cx="43" cy="76" rx="46" ry="16" fill="#000000" opacity="0.14"/>
<polygon points="43.0,20.0 62.0,28.0 43.0,36.0 24.0,28.0" fill="#cde8a0" opacity="1"/><polygon points="24.0,28.0 24.0,54.0 43.0,62.0 43.0,36.0" fill="#7ab356" opacity="1"/><polygon points="43.0,36.0 43.0,62.0 62.0,54.0 62.0,28.0" fill="#1e3a2a" opacity="1"/><rect x="29.0" y="32.0" width="5.0" height="5.0" fill="#1e3a2a" opacity="0.5"/><rect x="48.0" y="30.0" width="5.0" height="5.0" fill="#1e3a2a" opacity="0.5"/><rect x="48.0" y="42.0" width="5.0" height="5.0" fill="#cde8a0" opacity="0.5"/><rect x="38.0" y="47.0" width="6.0" height="6.0" fill="#d7d7d7" opacity="0.9"/>
</g>
</svg>
