<?xml version="1.0" encoding="UTF-8"?>
<svg width="86" height="86" viewBox="0 0 86 86" xmlns="http://www.w3.org/2000/svg">
<defs><clipPath id="clip"><path d="M 0 0 L 86.0 0 L 86.0 86.0 L 0 86.0 Z M 86 43 A 43.0 43.0 0 0 1 43.0 86.0 L 86 86 Z" clip-rule="evenodd"/></clipPath><linearGradient id="bg" x1="0" y1="0" x2="1" y2="1"><stop offset="0" stop-color="#ffa08a"/><stop offset="1" stop-color="#b31217"/></linearGradient></defs><g clip-path="url(#clip)"><rect width="86" height="86" fill="url(#bg)"/><line x1="43" y1="16" x2="43" y2="70" stroke="#fff" stroke-width="1" stroke-linecap="round" opacity=".08"/><line x1="16" y1="43" x2="70" y2="43" stroke="#fff" stroke-width="1" stroke-linecap="round" opacity=".08"/><g transform="translate(0 0)"><path d="M 32 32 C 32 26 40 23 46 26 C 51 29 54 34 54 40 C 54 45 52 49 50 52 C 48 55 40 55 38 52 C 33 48 32 40 32 32 Z" fill="#ffe7e0" stroke="#1f1f2a" stroke-width="1"/><circle cx="39" cy="36" r="3.2" fill="#1f1f2a"/><circle cx="49" cy="36" r="3.2" fill="#1f1f2a"/><line x1="41" y1="34" x2="44" y2="37" stroke="#a5d6a7" stroke-width="1.6" stroke-linecap="round"/><line x1="46" y1="34" x2="43" y2="37" stroke="#a5d6a7" stroke-width="1.6" stroke-linecap="round"/><path d="M 34 51 C 38 50 40 49 42 51 C 44 49 46 50 50 51" fill="none" stroke="#1f1f2a" stroke-width="1.4"/></g></g><path d="M 0 0 L 86.0 0 L 86.0 86.0 L 0 86.0 Z M 86 43 A 43.0 43.0 0 0 1 43.0 86.0 L 86 86 Z" fill="none" stroke="rgba(255,255,255,0.28)" stroke-width="1.4"/>
</svg>
